<svg width="31" height="33" viewBox="0 0 31 33" fill="none" xmlns="http://www.w3.org/2000/svg">
<path d="M29.8031 4.03638C30.166 3.66753 30.3666 3.2011 30.3666 2.6741C30.3666 1.58053 29.5178 0.718095 28.4334 0.718095C27.9003 0.718095 27.4068 0.950381 27.0288 1.31767L14.7144 13.9211L16.352 13.9211L4.06336 1.31767C3.68234 0.947382 3.1781 0.718096 2.66181 0.718096C1.57432 0.718096 0.714843 1.58053 0.714843 2.6741C0.714843 3.2041 0.912386 3.65981 1.27834 4.03638L14.0387 17.0814C14.4482 17.5291 14.9632 17.7584 15.5461 17.7645C16.1123 17.7645 16.6027 17.5321 17.0534 17.0814L29.8031 4.03638Z" fill="#FF563C"/>
<path d="M29.8031 18.9892C30.166 18.6203 30.3666 18.1675 30.3666 17.6268C30.3666 16.5334 29.5178 15.6815 28.4334 15.6815C27.9003 15.6815 27.4068 15.9002 27.0288 16.2705L14.7144 28.8876L16.352 28.8876L4.06336 16.2705C3.68234 15.8972 3.1781 15.6815 2.66181 15.6815C1.57432 15.6815 0.714843 16.5334 0.714843 17.6268C0.714843 18.1707 0.912386 18.6233 1.27834 18.9892L14.0387 32.0342C14.4482 32.4789 14.9632 32.7112 15.5461 32.7142C16.1123 32.7142 16.6027 32.4956 17.0534 32.0479L29.8031 18.9892Z" fill="#FF563C"/>
</svg>
