<svg width="22" height="20" viewBox="0 0 22 20" fill="none" xmlns="http://www.w3.org/2000/svg">
<path d="M4.00988 19.3405H17.8303C19.9983 19.3405 21.1171 18.2217 21.1171 16.0784V3.85364C21.1171 1.70851 19.9983 0.591553 17.8303 0.591553H4.00988C1.84185 0.591553 0.714844 1.70028 0.714844 3.85364V16.0784C0.714844 18.23 1.84185 19.3405 4.00988 19.3405ZM3.98215 17.3726C3.1388 17.3726 2.68278 16.9402 2.68278 16.0567V6.77624C2.68278 5.90094 3.1388 5.46219 3.98215 5.46219H17.8416C18.6849 5.46219 19.1492 5.90094 19.1492 6.77624V16.0567C19.1492 16.9402 18.6849 17.3726 17.8416 17.3726H3.98215ZM8.9876 8.94347H9.58027C9.93719 8.94347 10.0532 8.83759 10.0532 8.48061V7.88797C10.0532 7.53099 9.93719 7.41688 9.58027 7.41688H8.9876C8.63062 7.41688 8.50646 7.53099 8.50646 7.88797V8.48061C8.50646 8.83759 8.63062 8.94347 8.9876 8.94347ZM12.27 8.94347H12.8626C13.2196 8.94347 13.3456 8.83759 13.3456 8.48061V7.88797C13.3456 7.53099 13.2196 7.41688 12.8626 7.41688H12.27C11.913 7.41688 11.7889 7.53099 11.7889 7.88797V8.48061C11.7889 8.83759 11.913 8.94347 12.27 8.94347ZM15.5542 8.94347H16.1468C16.5038 8.94347 16.628 8.83759 16.628 8.48061V7.88797C16.628 7.53099 16.5038 7.41688 16.1468 7.41688H15.5542C15.1972 7.41688 15.0813 7.53099 15.0813 7.88797V8.48061C15.0813 8.83759 15.1972 8.94347 15.5542 8.94347ZM5.70522 12.1756H6.2878C6.65484 12.1756 6.77075 12.0698 6.77075 11.7128V11.1201C6.77075 10.7631 6.65484 10.6573 6.2878 10.6573H5.70522C5.33818 10.6573 5.22227 10.7631 5.22227 11.1201V11.7128C5.22227 12.0698 5.33818 12.1756 5.70522 12.1756ZM8.9876 12.1756H9.58027C9.93719 12.1756 10.0532 12.0698 10.0532 11.7128V11.1201C10.0532 10.7631 9.93719 10.6573 9.58027 10.6573H8.9876C8.63062 10.6573 8.50646 10.7631 8.50646 11.1201V11.7128C8.50646 12.0698 8.63062 12.1756 8.9876 12.1756ZM12.27 12.1756H12.8626C13.2196 12.1756 13.3456 12.0698 13.3456 11.7128V11.1201C13.3456 10.7631 13.2196 10.6573 12.8626 10.6573H12.27C11.913 10.6573 11.7889 10.7631 11.7889 11.1201V11.7128C11.7889 12.0698 11.913 12.1756 12.27 12.1756ZM15.5542 12.1756H16.1468C16.5038 12.1756 16.628 12.0698 16.628 11.7128V11.1201C16.628 10.7631 16.5038 10.6573 16.1468 10.6573H15.5542C15.1972 10.6573 15.0813 10.7631 15.0813 11.1201V11.7128C15.0813 12.0698 15.1972 12.1756 15.5542 12.1756ZM5.70522 15.4161H6.2878C6.65484 15.4161 6.77075 15.3038 6.77075 14.945V14.3541C6.77075 13.9953 6.65484 13.8913 6.2878 13.8913H5.70522C5.33818 13.8913 5.22227 13.9953 5.22227 14.3541V14.945C5.22227 15.3038 5.33818 15.4161 5.70522 15.4161ZM8.9876 15.4161H9.58027C9.93719 15.4161 10.0532 15.3038 10.0532 14.945V14.3541C10.0532 13.9953 9.93719 13.8913 9.58027 13.8913H8.9876C8.63062 13.8913 8.50646 13.9953 8.50646 14.3541V14.945C8.50646 15.3038 8.63062 15.4161 8.9876 15.4161ZM12.27 15.4161H12.8626C13.2196 15.4161 13.3456 15.3038 13.3456 14.945V14.3541C13.3456 13.9953 13.2196 13.8913 12.8626 13.8913H12.27C11.913 13.8913 11.7889 13.9953 11.7889 14.3541V14.945C11.7889 15.3038 11.913 15.4161 12.27 15.4161Z" fill="#332E31"/>
</svg>
