<svg width="50" height="50" viewBox="0 0 50 50" fill="none" xmlns="http://www.w3.org/2000/svg">
<path d="M23.6816 5.37105C21.5918 5.70308 19.6191 6.65034 18.0273 8.11519C16.4551 9.55073 15.1172 12.1191 14.8828 14.1503L14.8242 14.707L15.6641 15.0878C16.123 15.2929 16.5332 15.4394 16.5625 15.4003C16.5918 15.371 16.6797 14.9902 16.7578 14.5507C17.1777 12.1679 18.4766 10.0097 20.2734 8.73042C21.543 7.82222 23.2422 7.22651 24.6484 7.19722C25.2246 7.17769 25.3125 7.20698 25.5469 7.44136C25.8789 7.77339 25.8887 8.24214 25.5566 8.56441C25.3711 8.75972 25.1758 8.80855 24.4531 8.88667C21.1328 9.22847 18.6914 11.8359 18.3203 15.4296L18.252 16.0742L19.1602 16.289C21.5039 16.8359 23.7207 17.0507 26.0254 16.9531C29.1797 16.8359 31.7676 16.2304 34.6094 14.9609L35.1758 14.707L35.1172 14.1503C35.0098 13.2226 34.6875 12.2167 34.1309 11.0839C32.4707 7.67573 29.0918 5.45894 25.3418 5.32222C24.7559 5.30269 24.0039 5.32222 23.6816 5.37105Z" fill="#FFCC01"/>
<path d="M14.5996 19.1406C14.5605 20.5957 14.5508 21.8066 14.5703 21.8359C14.5996 21.8554 15.293 21.5918 16.1035 21.2402C17.6758 20.5664 18.0176 20.498 18.3398 20.7714C18.4473 20.8691 19.0332 21.7578 19.6289 22.7539C20.2344 23.75 20.7324 24.5703 20.752 24.5898C20.7617 24.5996 21.6211 23.9257 22.666 23.0957C23.7109 22.2558 24.6582 21.5527 24.7852 21.5234C24.9023 21.4843 25.0977 21.4843 25.2246 21.5234C25.3418 21.5527 26.2891 22.2558 27.334 23.0957C29.0332 24.4628 29.2383 24.5996 29.3457 24.4433C29.4043 24.3457 29.8926 23.5449 30.4102 22.6562C31.4551 20.9082 31.6992 20.6054 32.1289 20.6054C32.2754 20.6054 33.0762 20.8886 33.8965 21.2402C34.707 21.5918 35.4004 21.8554 35.4297 21.8359C35.4492 21.8066 35.4395 20.5957 35.4004 19.1406C35.3516 17.2363 35.293 16.5039 35.2148 16.5332C31.543 18.0566 28.6719 18.6523 25 18.6523C21.3281 18.6523 18.457 18.0566 14.7852 16.5332C14.707 16.5039 14.6484 17.2363 14.5996 19.1406Z" fill="#FFCC01"/>
<path d="M10.791 21.4453C7.83203 21.914 4.99023 22.5781 3.02734 23.2519C1.86523 23.6523 0.683594 24.1503 0.683594 24.2285C0.683594 24.2675 1.09375 24.5605 1.5918 24.873C4.58008 26.8066 7.92969 28.3398 11.2109 29.3066C11.9336 29.5117 12.5391 29.6777 12.5586 29.6679C12.5879 29.6191 12.793 23.1933 12.793 22.1386V21.1914L12.5293 21.2011C12.373 21.2011 11.6016 21.3183 10.791 21.4453Z" fill="#FFCC01"/>
<path d="M37.2862 25.4101C37.3643 27.7343 37.4327 29.6484 37.4424 29.6679C37.462 29.6777 38.0674 29.5117 38.7901 29.3066C42.0713 28.3398 45.421 26.8066 48.419 24.873C48.9073 24.5605 49.3174 24.2675 49.3174 24.2285C49.3174 24.0527 46.7588 23.1347 44.8253 22.6074C42.8526 22.08 38.1944 21.1914 37.3448 21.1914C37.1592 21.1914 37.1592 21.2597 37.2862 25.4101Z" fill="#FFCC01"/>
<path d="M15.957 23.125L14.4727 23.7695L14.4141 25.2832C14.3848 26.123 14.3262 27.5488 14.2969 28.4668L14.2383 30.127L15.6836 30.4004C19.082 31.0254 21.5039 31.25 25 31.25C28.4668 31.25 31.6602 30.9473 34.6191 30.332L35.6934 30.1172L35.6738 28.6035C35.6641 27.7734 35.625 26.3477 35.5859 25.4297L35.5273 23.7695L34.0039 23.1055C33.1641 22.7441 32.4609 22.4805 32.4414 22.5293C32.4316 22.5684 31.8945 23.4668 31.2695 24.5117C30.0293 26.5625 29.7559 26.8555 29.2578 26.6602C29.1211 26.6113 28.125 25.8594 27.0508 25C25.9766 24.1406 25.0586 23.4375 25 23.4375C24.9414 23.4375 24.0234 24.1406 22.9492 25C21.875 25.8594 20.8789 26.6113 20.7422 26.6602C20.2344 26.8555 19.9707 26.5625 18.7012 24.4336C18.0566 23.3496 17.5098 22.4707 17.4805 22.4707C17.4512 22.4805 16.7676 22.7734 15.957 23.125Z" fill="#FFCC01"/>
<path d="M0.00996973 26.709C0.00020411 28.1445 0.342001 30.5566 0.79122 32.2558C2.01192 36.7969 4.49239 39.7656 8.81856 41.8457C12.3342 43.5449 16.4162 44.375 22.4807 44.6387C28.6916 44.9023 34.7854 44.2285 38.8869 42.8125C41.592 41.8847 44.3264 40.2148 45.8205 38.584C48.1545 36.0351 49.3264 33.1445 49.8635 28.6621C49.9904 27.5488 50.0393 25.7617 49.9318 26.0742C49.9025 26.1523 49.2873 27.8222 48.5647 29.7851C47.1096 33.6914 46.9631 33.9648 46.3576 33.8476C46.2014 33.8183 46.0061 33.7402 45.9377 33.6816C45.8693 33.6328 45.4299 32.9297 44.9514 32.1289C44.4826 31.3281 44.0627 30.664 44.0236 30.664C43.9943 30.664 43.4865 32.0801 42.9104 33.8086C41.7873 37.1972 41.6799 37.4023 41.0744 37.4023C40.6447 37.4023 40.4983 37.2265 39.0627 35.0683C38.1838 33.7304 37.9299 33.4179 37.8713 33.5547C37.8322 33.6621 37.51 35.0488 37.1584 36.6504C36.8068 38.2519 36.465 39.6387 36.4065 39.7461C36.1428 40.1562 35.4397 40.2246 35.1272 39.8633C35.0588 39.7656 34.2287 38.4765 33.301 36.9824C32.3733 35.498 31.5822 34.2773 31.5529 34.2773C31.5139 34.2773 30.9963 35.8887 30.4104 37.8613C29.2775 41.6797 29.1799 41.8945 28.6135 41.8945C28.0373 41.8945 27.9201 41.6797 26.4455 37.9883C25.6838 36.0547 25.0295 34.4726 25.0002 34.4726C24.9709 34.4726 24.3166 36.0547 23.5549 37.9883C22.0705 41.6992 21.9631 41.8945 21.3674 41.8945C20.8205 41.8945 20.7229 41.6699 19.59 37.8613C19.0041 35.8887 18.4865 34.2773 18.4475 34.2773C18.4182 34.2773 17.6272 35.498 16.6994 36.9824C15.7717 38.4765 14.9416 39.7656 14.8733 39.8633C14.5608 40.2246 13.8576 40.1562 13.594 39.7461C13.5354 39.6387 13.1936 38.2519 12.842 36.6504C12.4904 35.0488 12.1682 33.6621 12.1291 33.5547C12.0705 33.4179 11.8166 33.7304 10.9377 35.0683C9.50216 37.2265 9.35567 37.4023 8.92599 37.4023C8.32052 37.4023 8.21309 37.1972 7.09005 33.8086C6.51388 32.0801 6.00606 30.664 5.97677 30.664C5.9377 30.664 5.51778 31.3281 5.04903 32.1289C4.57052 32.9297 4.13106 33.6328 4.0627 33.6816C3.99434 33.7402 3.79903 33.8183 3.64278 33.8476C3.03731 33.9648 2.89083 33.6914 1.43575 29.7851C0.713095 27.8222 0.0978604 26.1523 0.0685635 26.0742C0.0392666 25.9961 0.00996973 26.2793 0.00996973 26.709Z" fill="#FFCC01"/>
<path d="M2.62775 28.1933C3.48713 30.498 3.64338 30.918 3.70197 30.9765C3.74104 31.0156 4.07307 30.5469 4.43439 29.9316C4.80549 29.3066 5.08869 28.789 5.06916 28.7695C4.99104 28.7012 2.4715 27.4414 2.41291 27.4414C2.37385 27.4414 2.4715 27.7832 2.62775 28.1933Z" fill="#FFCC01"/>
<path d="M46.2402 28.0859C45.5957 28.4277 45.0293 28.7207 44.9707 28.7402C44.9218 28.7597 45.1855 29.2871 45.5566 29.9121C45.9277 30.5371 46.2597 31.0156 46.2988 30.9765C46.3574 30.9179 46.5136 30.498 47.373 28.1933C47.5586 27.705 47.6074 27.4414 47.5293 27.4511C47.4707 27.4609 46.8847 27.7441 46.2402 28.0859Z" fill="#FFCC01"/>
<path d="M7.61719 29.9902C7.61719 30.1758 9.12109 34.668 9.17969 34.668C9.21875 34.668 10.5859 32.6465 11.3477 31.4551L11.5234 31.1816L9.6875 30.5762C8.68164 30.2344 7.80273 29.9414 7.74414 29.9121C7.67578 29.8828 7.61719 29.9219 7.61719 29.9902Z" fill="#FFCC01"/>
<path d="M40.479 30.5078C39.5122 30.8398 38.6626 31.1328 38.604 31.1523C38.5259 31.1816 38.897 31.8359 39.6294 32.9297C40.2544 33.8867 40.7915 34.668 40.8208 34.668C40.8794 34.668 42.3833 30.1855 42.3833 30C42.3833 29.8438 42.5102 29.8145 40.479 30.5078Z" fill="#FFCC01"/>
<path d="M13.5051 31.9531C13.5344 32.0801 13.7883 33.2324 14.0715 34.5215C14.3547 35.8105 14.6086 36.8945 14.6477 36.9433C14.7063 37.0019 17.2844 32.9687 17.4309 32.5879C17.4797 32.4707 17.3528 32.4219 16.7766 32.3242C16.386 32.2656 15.5559 32.0996 14.9407 31.9726C13.5149 31.6797 13.4368 31.6797 13.5051 31.9531Z" fill="#FFCC01"/>
<path d="M35.0095 31.9824C34.4236 32.0996 33.6131 32.2558 33.2224 32.3242C32.6463 32.4219 32.5193 32.4707 32.5681 32.5879C32.7146 32.9687 35.2927 37.0019 35.3513 36.9433C35.3904 36.8945 35.6443 35.8105 35.9275 34.5215C36.2107 33.2324 36.4646 32.0801 36.4939 31.9531C36.5623 31.6797 36.4451 31.6797 35.0095 31.9824Z" fill="#FFCC01"/>
<path d="M19.8242 32.7539C19.8242 32.8125 21.123 37.1875 21.4063 38.0664C21.4551 38.2519 21.543 38.3593 21.582 38.3105C21.6602 38.2421 23.6035 33.4375 23.7012 33.0957C23.7402 32.9589 23.5449 32.9296 22.1484 32.8808C21.2695 32.8418 20.3906 32.7832 20.1953 32.7539C19.9902 32.7148 19.8242 32.7148 19.8242 32.7539Z" fill="#FFCC01"/>
<path d="M29.0043 32.8125C28.6039 32.8515 27.8129 32.8906 27.2563 32.9003C26.348 32.9101 26.2504 32.9296 26.2992 33.0761C26.3969 33.4277 28.3402 38.2324 28.4184 38.3105C28.4574 38.3593 28.5453 38.2519 28.5941 38.0664C28.848 37.2949 30.1762 32.8222 30.1762 32.7734C30.1762 32.705 30.0883 32.7148 29.0043 32.8125Z" fill="#FFCC01"/>
</svg>
