<svg width="25" height="24" viewBox="0 0 25 24" fill="none" xmlns="http://www.w3.org/2000/svg">
<g clip-path="url(#clip0_352_2231)">
<path d="M12.5645 4.5C13.6 4.5 14.4395 3.66053 14.4395 2.625C14.4395 1.58947 13.6 0.75 12.5645 0.75C11.5289 0.75 10.6895 1.58947 10.6895 2.625C10.6895 3.66053 11.5289 4.5 12.5645 4.5Z" stroke="#332D17" stroke-width="1.5" stroke-linejoin="round"/>
<path d="M10.138 12.8644C10.2739 12.0178 10.3349 11.1994 10.1146 10.6336C9.92706 10.147 9.51925 9.87468 9.02706 9.68906L4.68972 8.28562C4.12722 8.09812 3.60175 7.78406 3.56472 7.16343C3.51785 6.36656 4.22097 5.85093 4.9241 6.03843C4.9241 6.03843 9.0491 7.49812 12.5647 7.49812C16.0803 7.49812 20.1585 6.045 20.1585 6.045C21.0022 5.81062 21.5647 6.46687 21.5647 7.16015C21.5647 7.82625 21.0491 8.06062 20.4397 8.28234L16.3147 9.77812C15.9397 9.91875 15.3303 10.2 15.096 10.6303C14.8147 11.1342 14.8616 12.0145 14.9975 12.8611L15.2741 14.25L17.0277 21.9328C17.1589 22.5492 16.7324 23.1253 16.1183 23.2331C15.5043 23.3409 15.0022 22.9219 14.8203 22.3256L13.0597 16.8914C12.975 16.6308 12.9 16.3672 12.8347 16.1006L12.5647 15L12.3163 16.0148C12.2375 16.3383 12.1469 16.6583 12.0444 16.9748L10.3147 22.3209C10.1272 22.9233 9.63503 23.3405 9.02097 23.2331C8.40691 23.1258 7.97097 22.5023 8.10878 21.9328L9.86144 14.2533L10.138 12.8644Z" stroke="#332D17" stroke-width="1.5" stroke-linejoin="round"/>
</g>
<defs>
<clipPath id="clip0_352_2231">
<rect width="24" height="24" fill="white" transform="translate(0.564453)"/>
</clipPath>
</defs>
</svg>
