<svg width="25" height="24" viewBox="0 0 25 24" fill="none" xmlns="http://www.w3.org/2000/svg">
<path d="M9.18945 12C9.81077 12 10.3145 11.4963 10.3145 10.875C10.3145 10.2537 9.81077 9.75 9.18945 9.75C8.56813 9.75 8.06445 10.2537 8.06445 10.875C8.06445 11.4963 8.56813 12 9.18945 12Z" fill="#332D17"/>
<path d="M12.5669 18C10.4378 18 8.6472 16.6158 8.08048 14.7268C8.06463 14.6705 8.06213 14.6114 8.07318 14.5541C8.08423 14.4967 8.10853 14.4427 8.14413 14.3964C8.17973 14.3501 8.22566 14.3128 8.27825 14.2874C8.33084 14.2619 8.38864 14.2492 8.44704 14.25H16.6825C16.7409 14.2492 16.7987 14.2619 16.8513 14.2874C16.9039 14.3128 16.9498 14.3501 16.9854 14.3964C17.021 14.4427 17.0453 14.4967 17.0564 14.5541C17.0674 14.6114 17.0649 14.6705 17.0491 14.7268C16.487 16.6158 14.6959 18 12.5669 18Z" fill="#332D17"/>
<path d="M15.9395 12C16.5608 12 17.0645 11.4963 17.0645 10.875C17.0645 10.2537 16.5608 9.75 15.9395 9.75C15.3181 9.75 14.8145 10.2537 14.8145 10.875C14.8145 11.4963 15.3181 12 15.9395 12Z" fill="#332D17"/>
<path d="M12.5645 21.75C17.9492 21.75 22.3145 17.3848 22.3145 12C22.3145 6.61522 17.9492 2.25 12.5645 2.25C7.17968 2.25 2.81445 6.61522 2.81445 12C2.81445 17.3848 7.17968 21.75 12.5645 21.75Z" stroke="#332D17" stroke-width="1.5" stroke-miterlimit="10"/>
</svg>
