<svg width="25" height="24" viewBox="0 0 25 24" fill="none" xmlns="http://www.w3.org/2000/svg">
<path d="M12.5645 2.25C8.83789 2.25 5.81445 5.12766 5.81445 8.67188C5.81445 12.75 10.3145 19.2127 11.9668 21.4448C12.0354 21.5391 12.1253 21.6157 12.2291 21.6686C12.333 21.7215 12.4479 21.749 12.5645 21.749C12.681 21.749 12.7959 21.7215 12.8998 21.6686C13.0036 21.6157 13.0935 21.5391 13.1621 21.4448C14.8145 19.2136 19.3145 12.7533 19.3145 8.67188C19.3145 5.12766 16.291 2.25 12.5645 2.25Z" stroke="#332D17" stroke-width="1.125" stroke-linecap="round" stroke-linejoin="round"/>
<path d="M12.5645 11.25C13.8071 11.25 14.8145 10.2426 14.8145 9C14.8145 7.75736 13.8071 6.75 12.5645 6.75C11.3218 6.75 10.3145 7.75736 10.3145 9C10.3145 10.2426 11.3218 11.25 12.5645 11.25Z" stroke="#332D17" stroke-width="1.125" stroke-linecap="round" stroke-linejoin="round"/>
</svg>
