<svg width="51" height="50" viewBox="0 0 51 50" fill="none" xmlns="http://www.w3.org/2000/svg">
<g clip-path="url(#clip0_437_5258)">
<path d="M30.1404 3.0664C28.9099 3.36914 28.2166 4.11133 28.49 4.83398C28.5291 4.92187 28.9587 5.18554 29.447 5.41015C30.5701 5.9375 31.8787 6.74805 32.992 7.59766C34.3201 8.63281 34.3298 8.59375 32.9041 8.58398C29.1931 8.57422 25.9216 10.3711 25.3455 12.7246C25.1599 13.4766 25.2185 13.9941 25.531 14.209C25.8435 14.4238 26.117 14.3945 26.9959 14.0039C28.9587 13.1445 31.9959 12.5488 34.0662 12.6172L34.9646 12.6465L34.4275 13.3301C34.1345 13.7012 33.8513 14.082 33.8025 14.1797C33.7244 14.3066 33.9295 14.4824 35.033 15.1855C35.7556 15.6543 36.4197 16.0449 36.4978 16.0547C36.5955 16.0645 36.9177 15.6152 37.3865 14.8437C37.7966 14.1699 38.1384 13.6035 38.158 13.584C38.2263 13.5059 39.1443 14.3164 40.199 15.3711C41.6834 16.8555 42.9041 18.4961 43.6658 20.0195C44.0759 20.8496 44.2127 20.9961 44.5935 20.9961C45.238 20.9961 45.8435 20.1465 46.0291 18.9844C46.3513 16.9043 44.906 13.9453 42.5916 11.9238L41.8689 11.2988L43.1091 11.3574C44.6716 11.4355 46.1755 11.6602 47.24 11.9727C48.2556 12.2656 48.5877 12.2656 48.8513 12.002C49.0271 11.8262 49.0564 11.709 49.0173 11.2402C48.8123 8.41797 44.281 6.61133 39.613 7.49023L38.8318 7.63672L38.5877 7.30469C38.197 6.77734 36.8201 5.39062 36.2927 4.98047C34.2029 3.36914 31.8591 2.64648 30.1404 3.0664Z" fill="#484EDE"/>
<path d="M16.2148 6.16213C14.2129 6.4551 11.9375 7.91995 10.3652 9.93167L10.1211 10.2442L9.48633 10.0977C8.55859 9.88284 6.32227 9.8926 5.33594 10.0977C2.75781 10.6641 1.08789 12.0606 1.08789 13.6817C1.08789 14.4336 1.58594 14.6192 2.69922 14.2676C3.48047 14.0235 4.90625 13.7989 6.16602 13.711L7.19141 13.6426L6.21484 14.668C5.14062 15.8008 4.44727 16.8457 4.03711 17.9785C3.82227 18.584 3.77344 18.8672 3.77344 19.7266C3.77344 20.6543 3.80273 20.8008 4.04688 21.3184C4.35938 21.9531 4.66211 22.1973 5.10156 22.1875C5.52148 22.1778 5.60938 22.0703 6.16602 21.0059C6.81055 19.7852 7.72852 18.5645 8.95898 17.2852L9.94531 16.2696L10.3848 16.9434C10.8438 17.666 12.2793 20.2051 12.5723 20.8203C12.6699 21.0254 12.7871 21.1914 12.8359 21.1914C12.8848 21.1914 13.6953 20.7227 14.6328 20.1563C16.1465 19.2285 16.3223 19.1016 16.1953 18.9551C16.127 18.8672 15.8535 18.5352 15.5801 18.2129C15.3164 17.8906 14.5645 17.002 13.9102 16.2403L12.709 14.8535L13.1582 14.7852C13.4121 14.7461 14.1445 14.7461 14.7988 14.7852C16.8789 14.9121 18.998 15.3614 20.5703 16.0254C21.4395 16.3867 21.8105 16.3965 22.084 16.0352C22.5625 15.4395 22.0449 13.9063 21.0488 12.9981C19.7988 11.8555 17.416 11.0449 15.2676 11.0352L14.6133 11.0254L15.0039 10.6836C15.668 10.1074 17.3672 9.00393 18.2559 8.58401C19.3301 8.06643 19.4473 7.95901 19.4473 7.53909C19.4473 7.26565 19.3691 7.11917 19.0664 6.8262C18.4609 6.25002 17.3477 5.99612 16.2148 6.16213Z" fill="#484EDE"/>
<path d="M32.1815 16.377C30.9511 18.1055 29.6132 20.166 29.6718 20.2246C29.7206 20.2637 30.6288 20.6738 31.703 21.123L33.6562 21.9531L34.7011 19.8047C35.287 18.6133 35.7558 17.6367 35.7558 17.627C35.7558 17.5684 32.8456 15.7227 32.748 15.7227C32.6991 15.7227 32.4355 16.0156 32.1815 16.377Z" fill="#484EDE"/>
<path d="M15.4041 21.582C14.4373 22.168 13.617 22.6855 13.578 22.7246C13.5389 22.7637 13.6756 23.2129 13.8807 23.7012C14.0858 24.1992 14.4178 25.0976 14.6131 25.7031C14.8084 26.3086 14.9842 26.8164 15.0037 26.8359C15.0428 26.875 19.7596 24.6289 19.867 24.5215C19.9744 24.414 19.6131 23.7012 18.8612 22.5586C18.0408 21.3183 17.4158 20.5078 17.2694 20.5176C17.201 20.5176 16.3612 20.9961 15.4041 21.582Z" fill="#484EDE"/>
<path d="M28.5979 21.7481C27.5042 23.6133 25.9124 26.8067 26.0198 26.9141C26.0784 26.9727 31.4886 28.5156 31.5179 28.4863C31.5374 28.4668 31.7229 27.8027 31.9378 27.002C32.1526 26.1914 32.4847 25.0781 32.68 24.5215C32.8655 23.9551 33.0022 23.4863 32.9827 23.4668C32.9241 23.3985 28.8128 21.6797 28.7249 21.6797C28.6761 21.6797 28.6175 21.709 28.5979 21.7481Z" fill="#484EDE"/>
<path d="M18.0796 27.2168C16.6538 27.9004 15.4722 28.4668 15.4527 28.4863C15.4331 28.5059 15.5308 29.1699 15.6773 29.9805C15.8238 30.791 15.9898 32.0898 16.0581 32.8711L16.1656 34.2969L16.6148 34.2285C18.4312 33.9648 20.1402 33.7793 21.6246 33.6719L23.3628 33.5547L23.2945 33.1543C23.2066 32.6074 22.6499 30.752 22.2691 29.7168C21.9078 28.7012 20.8335 26.1523 20.7261 26.0547C20.6871 26.0059 19.4956 26.5332 18.0796 27.2168Z" fill="#484EDE"/>
<path d="M24.7793 29.707C24.2324 31.084 23.5488 33.125 23.5488 33.3789C23.5488 33.5254 23.7148 33.5449 25.4238 33.5449C26.459 33.5449 28.002 33.5742 28.8516 33.623C30.3848 33.6914 30.3848 33.6914 30.3848 33.4766C30.3848 33.3691 30.541 32.5683 30.7363 31.709C30.9219 30.8594 31.0684 30.1367 31.0488 30.1269C31 30.0683 25.5117 28.5156 25.3848 28.5156C25.3164 28.5156 25.043 29.043 24.7793 29.707Z" fill="#484EDE"/>
<path d="M22.709 35.2539C11.8691 35.8691 3.44141 39.248 1 43.9355C0.667969 44.5703 0.599609 44.8047 0.599609 45.2637C0.599609 46.084 0.941406 46.6016 1.69336 46.9238C2.01562 47.0508 4.57422 47.0703 25.5996 47.0703C46.625 47.0703 49.1836 47.0508 49.5059 46.9238C50.6289 46.4453 50.9219 45.3613 50.2676 44.0527C48.2461 40.0391 41.9375 36.9531 33.2168 35.7031C30.3848 35.293 25.5801 35.0879 22.709 35.2539Z" fill="#484EDE"/>
</g>
<defs>
<clipPath id="clip0_437_5258">
<rect width="50" height="50" fill="white" transform="translate(0.599609)"/>
</clipPath>
</defs>
</svg>
