<svg width="51" height="50" viewBox="0 0 51 50" fill="none" xmlns="http://www.w3.org/2000/svg">
<g clip-path="url(#clip0_976_2101)">
<path d="M10.876 0.136719C10.29 0.322266 9.53809 0.830078 9.1377 1.29883C8.7666 1.72852 8.30762 2.57812 8.30762 2.82227C8.30762 2.95898 8.1416 2.97852 7.2041 2.97852C6.18848 2.97852 6.07129 2.99805 5.52441 3.26172C4.77246 3.63281 4.03027 4.375 3.65918 5.12695C3.39551 5.67383 3.37598 5.79102 3.37598 6.80664V7.90039L3.07324 7.95898C2.64355 8.03711 1.66699 8.68164 1.2959 9.14062C1.12012 9.3457 0.856445 9.76562 0.709961 10.0586C0.46582 10.5469 0.446289 10.6934 0.446289 11.7188C0.446289 12.7637 0.46582 12.8809 0.729492 13.4277C1.10059 14.1797 1.84277 14.9219 2.59473 15.293L3.18066 15.5762H7.01855H10.8564L11.0811 14.9316C11.4521 13.877 11.9014 13.1934 12.8096 12.2852C13.6494 11.4453 13.6592 11.4258 13.8252 10.6934C14.0986 9.45312 14.6553 8.48633 15.6709 7.46094C16.4033 6.72852 16.7158 6.49414 17.3994 6.16211C17.8682 5.9375 18.5713 5.68359 18.9814 5.5957C19.6455 5.44922 19.7627 5.39062 20.0264 5.05859L20.3291 4.6875L20.0264 4.29688C19.6064 3.76953 18.6592 3.16406 18.0439 3.02734C17.7607 2.95898 17.165 2.91992 16.7354 2.93945L15.9346 2.97852L15.876 2.67578C15.7979 2.24609 15.1533 1.26953 14.6943 0.898438C14.4893 0.722656 14.0693 0.458984 13.7764 0.3125C13.3174 0.0878906 13.1025 0.0488281 12.2627 0.0292969C11.6377 0.00976562 11.1396 0.0488281 10.876 0.136719Z" fill="#151009" fill-opacity="0.6"/>
<path d="M37.2432 0.136719C36.6572 0.322266 35.9053 0.830078 35.5049 1.29883C35.1338 1.72852 34.6748 2.57812 34.6748 2.83203C34.6748 2.95898 34.5479 2.97852 33.874 2.93945C33.4346 2.91992 32.8389 2.95898 32.5557 3.02734C31.9404 3.16406 30.9932 3.76953 30.5732 4.29688L30.2705 4.6875L30.5732 5.05859C30.8467 5.40039 30.9541 5.45898 31.6475 5.60547C32.917 5.87891 33.8936 6.42578 34.9287 7.46094C35.6611 8.19336 35.8955 8.50586 36.2178 9.17969C36.4424 9.63867 36.6963 10.332 36.7842 10.7227C36.9404 11.4258 36.9697 11.4551 37.7998 12.2852C38.6982 13.1934 39.1475 13.877 39.5186 14.9316L39.7432 15.5762H43.5811H47.4189L48.0049 15.293C48.7568 14.9219 49.499 14.1797 49.8701 13.4277C50.1338 12.8809 50.1533 12.7637 50.1533 11.7188C50.1533 10.6934 50.1338 10.5469 49.8896 10.0586C49.7432 9.76562 49.4795 9.3457 49.3037 9.14062C48.9326 8.68164 47.9561 8.03711 47.5264 7.95898L47.2236 7.90039V6.80664C47.2236 5.79102 47.2041 5.67383 46.9404 5.12695C46.5693 4.375 45.8271 3.63281 45.0752 3.26172C44.5283 2.99805 44.4111 2.97852 43.3955 2.97852H42.3018L42.2432 2.67578C42.165 2.24609 41.5205 1.26953 41.0615 0.898438C40.8564 0.722656 40.4365 0.458984 40.1436 0.3125C39.6846 0.0878906 39.4697 0.0488281 38.6299 0.0292969C38.0049 0.00976562 37.5068 0.0488281 37.2432 0.136719Z" fill="#151009" fill-opacity="0.6"/>
<path d="M24.0596 5.50781C23.4736 5.69336 22.7217 6.20117 22.3213 6.66992C21.9502 7.09961 21.4912 7.94922 21.4912 8.19336C21.4912 8.33008 21.3252 8.34961 20.3877 8.34961C19.3721 8.34961 19.2549 8.36914 18.708 8.63281C17.9561 9.00391 17.2139 9.74609 16.8428 10.498C16.5791 11.0449 16.5596 11.1621 16.5596 12.1777V13.2715L16.2568 13.3301C15.8271 13.4082 14.8506 14.0527 14.4795 14.5117C14.3037 14.7168 14.04 15.1367 13.8936 15.4297C13.6494 15.918 13.6299 16.0645 13.6299 17.0898C13.6299 18.1348 13.6494 18.252 13.9131 18.7988C14.2842 19.5508 15.0264 20.293 15.7783 20.6641L16.3643 20.9473H25.2998H34.2354L34.8213 20.6641C35.5732 20.293 36.3154 19.5508 36.6865 18.7988C36.9502 18.252 36.9697 18.1348 36.9697 17.0898C36.9697 16.0645 36.9502 15.918 36.7061 15.4297C36.5596 15.1367 36.2959 14.7168 36.1201 14.5117C35.749 14.0527 34.7725 13.4082 34.3428 13.3301L34.04 13.2715V12.1777C34.04 11.1621 34.0205 11.0449 33.7568 10.498C33.3857 9.74609 32.6436 9.00391 31.8916 8.63281C31.3447 8.36914 31.2275 8.34961 30.2119 8.34961H29.1182L29.0596 8.04688C28.9814 7.61719 28.3369 6.64062 27.8779 6.26953C27.6729 6.09375 27.2529 5.83008 26.96 5.68359C26.501 5.45898 26.2861 5.41992 25.4463 5.40039C24.8213 5.38086 24.3232 5.41992 24.0596 5.50781Z" fill="#151009" fill-opacity="0.6"/>
<path d="M46.833 18.457C46.5107 18.4961 45.9248 18.5352 45.5439 18.5449L44.8311 18.5547V20.0391C44.8311 21.3379 44.8604 21.5723 45.0166 21.8164C45.3193 22.2656 45.6904 22.4609 46.2959 22.4609C46.9014 22.4609 47.2725 22.2656 47.5752 21.8164C47.7412 21.5723 47.7607 21.3379 47.7607 19.9414C47.7607 18.4961 47.751 18.3594 47.5947 18.3691C47.4971 18.3789 47.1553 18.418 46.833 18.457Z" fill="#151009" fill-opacity="0.6"/>
<path d="M4.79199 23.457C4.79199 28.1055 4.80176 28.3887 4.97754 28.6523C5.28027 29.1016 5.65137 29.2969 6.25684 29.2969C6.8623 29.2969 7.2334 29.1016 7.53613 28.6523C7.71191 28.3887 7.72168 28.1055 7.72168 23.457V18.5547H6.25684H4.79199V23.457Z" fill="#151009" fill-opacity="0.6"/>
<path d="M10.6514 26.4551V34.3652L11.2861 34.0625C11.6377 33.9062 12.3018 33.6914 12.751 33.6035L13.5811 33.4473V28.0664V22.6855L12.7314 21.8164C11.833 20.9082 11.4521 20.3125 11.0811 19.248C10.9541 18.8965 10.8076 18.5938 10.7588 18.5742C10.6807 18.5449 10.6514 20.9668 10.6514 26.4551Z" fill="#151009" fill-opacity="0.6"/>
<path d="M39.7041 18.6719C39.6846 18.7402 39.6162 18.9746 39.5576 19.1895C39.2842 20.0781 38.7373 20.9473 37.8779 21.8164L37.0186 22.6855V30.4883C37.0186 34.7754 37.0381 38.2812 37.0576 38.2812C37.0771 38.2812 37.3799 38.1445 37.7314 37.9785C38.083 37.8223 38.7275 37.6074 39.1572 37.5195L39.9482 37.3535V35.4883V33.6133L40.7588 33.3594C41.9209 32.998 42.7021 32.5 43.708 31.4941C44.4111 30.791 44.6748 30.4492 45.0068 29.7852C45.5342 28.7305 45.8076 27.6367 45.8076 26.6211C45.8076 25.752 45.6709 25.4199 45.1631 25.0879C44.7822 24.834 43.9326 24.834 43.5225 25.0879C43.0732 25.3711 42.9072 25.7324 42.79 26.6992C42.6045 28.2324 41.7842 29.502 40.5439 30.166L39.9482 30.4785V24.5215C39.9482 20.4883 39.9189 18.5547 39.8506 18.5547C39.792 18.5547 39.7334 18.6133 39.7041 18.6719Z" fill="#151009" fill-opacity="0.6"/>
<path d="M23.835 27.0508C23.835 28.9844 23.7959 30.1758 23.7374 30.1758C23.6885 30.1758 23.3956 30.0879 23.1026 29.9707C22.3409 29.6875 21.4913 28.8477 21.2276 28.125C21.1202 27.8321 20.9932 27.295 20.9639 26.9434C20.8467 25.8789 20.3682 25.3907 19.4502 25.3907C18.8252 25.3907 18.3858 25.625 18.1221 26.1036C17.8877 26.5528 17.9561 27.9981 18.2686 28.9063C18.9913 31.0547 20.9541 32.7442 23.1416 33.125L23.835 33.2422V35.4004V37.5684L24.6944 38.4375C25.6026 39.3653 26.1202 40.2051 26.4229 41.2305C26.5108 41.543 26.628 41.8164 26.6768 41.8457C26.7256 41.8848 26.7647 41.045 26.7647 39.7168V37.5196L27.5752 37.2657C28.7374 36.9043 29.5186 36.4063 30.5245 35.4004C31.2276 34.6973 31.4913 34.3555 31.8233 33.6914C32.3506 32.6368 32.6241 31.543 32.6241 30.5274C32.6241 29.6582 32.4874 29.3262 31.9795 28.9942C31.5987 28.7403 30.7491 28.7403 30.3389 28.9942C29.8897 29.2774 29.7237 29.6387 29.6065 30.6055C29.4209 32.1387 28.6006 33.4082 27.3604 34.0723L26.7647 34.3848V29.1602V23.9258H25.2999H23.835V27.0508Z" fill="#151009" fill-opacity="0.6"/>
<path d="M12.751 36.4941C11.5107 36.9434 10.583 37.9785 10.251 39.2871L10.1436 39.7363L9.7334 39.5215C9.3916 39.3359 9.18652 39.3066 8.20996 39.3066C7.16504 39.3066 7.04785 39.3262 6.50098 39.5898C5.74902 39.9609 5.00684 40.7031 4.63574 41.4551C4.37207 41.9922 4.35254 42.1289 4.35254 43.0859V44.1406H3.91309C2.91699 44.1406 1.64746 44.8242 1.0127 45.7227C0.436523 46.5234 0.299805 47.0801 0.299805 48.6328V50H14.0693H27.8389V48.6328C27.8389 47.0801 27.7021 46.5234 27.126 45.7227C26.4912 44.8242 25.2217 44.1406 24.2256 44.1406H23.7861V43.0859C23.7861 42.1289 23.7666 41.9922 23.5029 41.4551C23.1318 40.7031 22.3896 39.9609 21.6377 39.5898C21.0908 39.3262 20.9736 39.3066 19.9287 39.3066C18.9814 39.3066 18.7471 39.3359 18.3955 39.5117L17.9951 39.7168L17.8779 39.2773C17.5947 38.1543 16.8037 37.168 15.7783 36.6699C15.2705 36.416 15.0654 36.377 14.2158 36.3477C13.4639 36.3281 13.1221 36.3672 12.751 36.4941Z" fill="#151009" fill-opacity="0.6"/>
<path d="M39.2158 40.4004C37.9756 40.8496 37.0479 41.8848 36.7158 43.1934L36.6084 43.6426L36.1982 43.4277C35.8564 43.2422 35.6514 43.2129 34.6748 43.2129C33.6299 43.2129 33.5127 43.2324 32.9658 43.4961C32.2139 43.8672 31.4717 44.6094 31.1006 45.3613C30.8174 45.9473 30.8174 45.957 30.7881 47.9688L30.7588 50H40.5342H50.3096L50.2803 47.9785C50.251 45.957 50.251 45.9473 49.9678 45.3613C49.5967 44.6094 48.8545 43.8672 48.1025 43.4961C47.5557 43.2324 47.4385 43.2129 46.3936 43.2129C45.4463 43.2129 45.2119 43.2422 44.8604 43.418L44.46 43.623L44.3428 43.1836C44.0596 42.0605 43.2686 41.0742 42.2432 40.5762C41.7354 40.3223 41.5303 40.2832 40.6807 40.2539C39.9287 40.2344 39.5869 40.2734 39.2158 40.4004Z" fill="#151009" fill-opacity="0.6"/>
</g>
<defs>
<clipPath id="clip0_976_2101">
<rect width="50" height="50" fill="white" transform="translate(0.299805)"/>
</clipPath>
</defs>
</svg>
