<svg width="194" height="48" viewBox="0 0 194 48" fill="none" xmlns="http://www.w3.org/2000/svg">
<circle cx="143.377" cy="24" r="24" fill="#FF563C"/>
<path d="M121.887 17.2725C125.655 14.7679 136.689 11.2615 150.678 17.2725C168.165 24.7863 182.472 19.7771 188.125 12.8C187.241 16.5569 182.543 24.3927 170.814 25.6808C156.154 27.2909 150.325 20.3138 145.203 25.6808C143.915 27.03 142.465 28.0494 141.01 28.8113C146.594 27.977 153.71 28.0194 160.216 30.8689C173.287 36.5936 178.763 39.456 184.769 36.5936C189.573 34.3037 192.776 28.3643 193.777 25.6808C193.777 31.5248 190.068 42.6762 175.23 40.5294C156.684 37.8459 138.49 32.6578 128.599 36.5936C118.707 40.5294 117.294 24.4285 121.887 17.2725Z" fill="#FFCD00"/>
<path d="M9.4432 40.8001C10.6496 40.8001 10.9824 40.4673 10.9824 39.2609V31.6897C10.9824 31.1073 11.024 30.8161 11.232 30.3169L15.2256 20.8737C16.1824 18.6689 16.3072 17.5873 16.3072 14.4257V11.1393C16.3072 9.93288 15.9744 9.60008 14.768 9.60008H11.9392C10.7328 9.60008 10.4 9.93288 10.4 11.1393V15.4241C10.4 16.3809 10.3584 16.9217 10.0672 17.9201L8.6528 23.0369C8.528 23.4529 8.4448 23.5361 8.1536 23.5361C7.8624 23.5361 7.7792 23.4529 7.6544 23.0369L6.24 17.9201C5.9488 16.9217 5.9072 16.3809 5.9072 15.4241V11.1393C5.9072 9.93288 5.5744 9.60008 4.368 9.60008H1.5392C0.3328 9.60008 0 9.93288 0 11.1393V14.4257C0 17.5873 0.1248 18.6689 1.0816 20.8737L5.0752 30.3169C5.2832 30.8161 5.3248 31.1073 5.3248 31.6897V39.2609C5.3248 40.4673 5.6576 40.8001 6.864 40.8001H9.4432Z" fill="white"/>
<path d="M28.4174 11.1393V33.0625C28.4174 34.7265 27.6686 35.3921 26.1294 35.3921C24.5486 35.3921 23.8414 34.7265 23.8414 33.0625V11.1393C23.8414 9.93288 23.5086 9.60008 22.3022 9.60008H19.6398C18.4334 9.60008 18.1006 9.93288 18.1006 11.1393V32.0641C18.1006 38.7617 20.0974 41.2161 26.1294 41.2161C32.1614 41.2161 34.1582 38.7617 34.1582 32.0641V11.1393C34.1582 9.93288 33.8254 9.60008 32.619 9.60008H29.9566C28.7502 9.60008 28.4174 9.93288 28.4174 11.1393Z" fill="white"/>
<path d="M53.0826 30.8161C53.0826 29.6097 52.7498 29.2769 51.5434 29.2769H48.881C47.6746 29.2769 47.3418 29.6097 47.3418 30.8161V33.0625C47.3418 34.7265 46.6346 35.3921 45.1786 35.3921C43.7226 35.3921 43.0154 34.7265 43.0154 33.0625V17.3377C43.0154 15.6737 43.7226 15.0081 45.1786 15.0081C46.6346 15.0081 47.3418 15.6737 47.3418 17.3377V19.5841C47.3418 20.7905 47.6746 21.1233 48.881 21.1233H51.5434C52.7498 21.1233 53.0826 20.7905 53.0826 19.5841V18.3361C53.0826 11.6385 51.169 9.18408 45.137 9.18408C39.105 9.18408 37.1082 11.6385 37.1082 18.3361V32.0641C37.1082 38.7617 39.105 41.2161 45.137 41.2161C51.169 41.2161 53.0826 38.7617 53.0826 32.0641V30.8161Z" fill="white"/>
<path d="M60.308 9.60008C58.436 9.60008 57.8536 10.2241 57.6456 11.7633L53.9848 39.2609C53.8184 40.4673 54.1512 40.8001 55.3576 40.8001H58.228C59.476 40.8001 59.7672 40.5089 59.9336 39.2609L60.4744 34.7265C60.516 34.3105 60.6408 34.1857 61.14 34.1857H64.7176C65.2168 34.1857 65.3416 34.3105 65.3832 34.7265L65.924 39.2609C66.0904 40.5089 66.3816 40.8001 67.6296 40.8001H70.5C71.7064 40.8001 72.0392 40.4673 71.8728 39.2609L68.212 11.7633C68.004 10.2241 67.4216 9.60008 65.5496 9.60008H60.308ZM63.6776 18.0865L64.6344 27.7793C64.676 28.2785 64.5512 28.4033 64.0104 28.4033H61.8472C61.3064 28.4033 61.1816 28.2785 61.2232 27.7793L62.18 18.0865C62.2216 17.5873 62.4712 17.5041 62.9288 17.5041C63.3864 17.5041 63.636 17.5873 63.6776 18.0865Z" fill="white"/>
<path d="M84.6524 15.4241C85.8588 15.4241 86.1916 15.0913 86.1916 13.8849V11.1393C86.1916 9.93288 85.8588 9.60008 84.6524 9.60008H72.2556C71.0492 9.60008 70.7164 9.93288 70.7164 11.1393V13.8849C70.7164 15.0913 71.0492 15.4241 72.2556 15.4241H74.8348C75.4172 15.4241 75.5836 15.5905 75.5836 16.1729V39.2609C75.5836 40.4673 75.9164 40.8001 77.1228 40.8001H79.7852C80.9916 40.8001 81.3244 40.4673 81.3244 39.2609V16.1729C81.3244 15.5905 81.4908 15.4241 82.0732 15.4241H84.6524Z" fill="white"/>
<path d="M91.2642 9.60008C89.3922 9.60008 88.8098 10.2241 88.6018 11.7633L84.941 39.2609C84.7746 40.4673 85.1074 40.8001 86.3138 40.8001H89.1842C90.4322 40.8001 90.7234 40.5089 90.8898 39.2609L91.4306 34.7265C91.4722 34.3105 91.597 34.1857 92.0962 34.1857H95.6738C96.173 34.1857 96.2978 34.3105 96.3394 34.7265L96.8802 39.2609C97.0466 40.5089 97.3378 40.8001 98.5858 40.8001H101.456C102.663 40.8001 102.995 40.4673 102.829 39.2609L99.1682 11.7633C98.9602 10.2241 98.3778 9.60008 96.5058 9.60008H91.2642ZM94.6338 18.0865L95.5906 27.7793C95.6322 28.2785 95.5074 28.4033 94.9666 28.4033H92.8034C92.2626 28.4033 92.1378 28.2785 92.1794 27.7793L93.1362 18.0865C93.1778 17.5873 93.4274 17.5041 93.885 17.5041C94.3426 17.5041 94.5922 17.5873 94.6338 18.0865Z" fill="white"/>
<path d="M116.198 24.7009C116.198 25.0753 116.114 25.1585 115.906 25.1585C115.74 25.1585 115.615 25.0753 115.49 24.7841L110.207 10.6817C109.833 9.72488 109.417 9.60008 108.21 9.60008H106.338C105.132 9.60008 104.799 9.93288 104.799 11.1393V39.2609C104.799 40.4673 105.132 40.8001 106.338 40.8001H108.626C109.833 40.8001 110.166 40.4673 110.166 39.2609V25.6993C110.166 25.3249 110.249 25.2417 110.457 25.2417C110.623 25.2417 110.748 25.3249 110.873 25.6161L116.073 39.3857C116.489 40.5089 116.863 40.8001 118.153 40.8001H120.066C121.273 40.8001 121.606 40.4673 121.606 39.2609V11.1393C121.606 9.93288 121.273 9.60008 120.066 9.60008H117.737C116.53 9.60008 116.198 9.93288 116.198 11.1393V24.7009Z" fill="white"/>
<path d="M131.137 11.1393C131.137 9.93288 130.804 9.60008 129.598 9.60008H126.935C125.729 9.60008 125.396 9.93288 125.396 11.1393V39.2609C125.396 40.4673 125.729 40.8001 126.935 40.8001H129.598C130.804 40.8001 131.137 40.4673 131.137 39.2609V11.1393Z" fill="white"/>
<path d="M141.147 20.7073C139.982 19.6257 139.733 19.0433 139.733 17.8369V17.1297C139.733 15.6321 140.398 15.0081 141.854 15.0081C143.31 15.0081 143.976 15.6737 143.976 17.3377V19.1681C143.976 20.3745 144.309 20.7073 145.515 20.7073H148.344C149.55 20.7073 149.883 20.3745 149.883 19.1681V18.3361C149.883 11.6385 147.886 9.18408 141.854 9.18408C135.822 9.18408 133.826 12.0961 133.826 17.3377V18.2529C133.826 21.0401 134.408 22.4545 137.195 24.9089L142.187 29.3601C143.726 30.7329 143.976 31.3153 143.976 32.4801V33.2705C143.976 34.7681 143.31 35.3921 141.854 35.3921C140.398 35.3921 139.733 34.7265 139.733 33.0625V31.2321C139.733 30.0257 139.4 29.6929 138.194 29.6929H135.365C134.158 29.6929 133.826 30.0257 133.826 31.2321V32.0641C133.826 38.7617 135.822 41.2161 141.854 41.2161C147.886 41.2161 149.883 38.3041 149.883 33.0625V32.3137C149.883 29.5265 149.259 28.0289 146.472 25.5329L141.147 20.7073Z" fill="white"/>
<path d="M131.137 11.1393C131.137 9.93288 130.804 9.60008 129.598 9.60008H126.936C125.729 9.60008 125.396 9.93288 125.396 11.1393V39.2609C125.396 40.4673 125.729 40.8001 126.936 40.8001H129.598C130.804 40.8001 131.137 40.4673 131.137 39.2609V11.1393Z" fill="#423B30"/>
<path d="M141.148 20.7073C139.983 19.6257 139.733 19.0433 139.733 17.8369V17.1297C139.733 15.6321 140.399 15.0081 141.855 15.0081C143.311 15.0081 143.976 15.6737 143.976 17.3377V19.1681C143.976 20.3745 144.309 20.7073 145.516 20.7073H148.344C149.551 20.7073 149.884 20.3745 149.884 19.1681V18.3361C149.884 11.6385 147.887 9.18408 141.855 9.18408C135.823 9.18408 133.826 12.0961 133.826 17.3377V18.2529C133.826 21.0401 134.408 22.4545 137.196 24.9089L142.188 29.3601C143.727 30.7329 143.976 31.3153 143.976 32.4801V33.2705C143.976 34.7681 143.311 35.3921 141.855 35.3921C140.399 35.3921 139.733 34.7265 139.733 33.0625V31.2321C139.733 30.0257 139.4 29.6929 138.194 29.6929H135.365C134.159 29.6929 133.826 30.0257 133.826 31.2321V32.0641C133.826 38.7617 135.823 41.2161 141.855 41.2161C147.887 41.2161 149.884 38.3041 149.884 33.0625V32.3137C149.884 29.5265 149.26 28.0289 146.472 25.5329L141.148 20.7073Z" fill="#423B30"/>
</svg>
