<svg width="51" height="50" viewBox="0 0 51 50" fill="none" xmlns="http://www.w3.org/2000/svg">
<g clip-path="url(#clip0_437_5325)">
<path d="M24.0643 0.195312C21.6717 0.830078 19.6795 2.83203 19.0643 5.23438C18.9569 5.6543 18.869 6.17188 18.869 6.38672C18.869 6.78711 18.869 6.78711 18.2635 7.03125C17.9315 7.16797 17.1795 7.54883 16.5936 7.88086C11.9158 10.5469 8.68342 15.0098 7.47248 20.459L7.20881 21.6309L7.17951 33.877C7.15021 44.8926 7.15998 46.1719 7.2967 46.6699C7.71662 48.125 8.93732 49.3652 10.3826 49.8145C10.9588 49.9902 11.5252 50 25.9002 50C40.2752 50 40.8416 49.9902 41.4178 49.8145C42.8631 49.3652 44.0838 48.125 44.5037 46.6699C44.6404 46.1719 44.6502 44.8926 44.6209 33.877L44.5916 21.6309L44.3279 20.459C43.117 15.0098 39.8846 10.5469 35.2069 7.88086C34.6209 7.54883 33.869 7.16797 33.5369 7.03125C32.9315 6.78711 32.9315 6.78711 32.9315 6.38672C32.9315 6.17188 32.8436 5.6543 32.7362 5.23438C32.1209 2.8125 30.119 0.810547 27.6971 0.195312C26.6912 -0.0683594 25.0604 -0.0585938 24.0643 0.195312ZM27.5897 3.59375C27.9998 3.79883 28.3904 4.0918 28.6834 4.41406C29.1033 4.88281 29.5721 5.63477 29.494 5.71289C29.4744 5.73242 29.0447 5.68359 28.5369 5.60547C27.9998 5.52734 26.8768 5.46875 25.9002 5.46875C24.9237 5.46875 23.8006 5.52734 23.2635 5.60547C22.7557 5.68359 22.326 5.73242 22.3065 5.71289C22.2381 5.64453 22.7069 4.85352 23.0389 4.48242C23.4979 3.97461 23.8494 3.73047 24.5233 3.44727C24.992 3.25195 25.1971 3.22266 26.0076 3.24219C26.8279 3.27148 27.0135 3.31055 27.5897 3.59375ZM27.1697 11.0742C30.4217 11.2891 33.9569 13.1738 36.1151 15.8594C37.951 18.1445 38.9471 20.6836 39.0447 23.3887C39.0936 24.5508 39.0838 24.6875 38.8983 24.9805C38.283 25.9375 36.8963 25.918 36.3201 24.9316C36.1932 24.707 36.1151 24.2871 36.0565 23.4668C35.8514 20.8398 34.8162 18.6621 32.9022 16.8359C30.9197 14.9512 28.6834 14.0625 25.9002 14.0625C23.117 14.0625 20.8807 14.9512 18.8983 16.8359C16.9842 18.6621 15.949 20.8398 15.744 23.4668C15.6854 24.2871 15.6072 24.707 15.4803 24.9316C14.9041 25.918 13.5174 25.9375 12.9022 24.9805C12.7166 24.6875 12.7069 24.5508 12.7557 23.3887C12.8924 19.8242 14.6893 16.2988 17.5408 14.0039C19.1522 12.7051 20.91 11.8359 22.824 11.3672C23.8006 11.1328 25.5291 10.9375 26.0955 10.9961C26.2322 11.0156 26.7108 11.0449 27.1697 11.0742ZM35.119 29.9609C36.6326 30.5273 37.7166 31.6699 38.1756 33.1543C38.3319 33.6719 38.3514 34.1211 38.3514 37.1094C38.3514 40.0977 38.3319 40.5469 38.1756 41.0645C37.6971 42.627 36.4373 43.877 34.9139 44.2969C34.2889 44.4727 33.7518 44.4824 25.9002 44.4824C18.0487 44.4824 17.5115 44.4727 16.8865 44.2969C15.3631 43.877 14.1033 42.627 13.6248 41.0645C13.4686 40.5469 13.449 40.0977 13.449 37.1094C13.449 34.1211 13.4686 33.6719 13.6248 33.1543C14.1815 31.3281 15.6756 30.0488 17.5506 29.7852C17.8729 29.7461 21.8279 29.7168 26.3397 29.7266L34.5428 29.7461L35.119 29.9609Z" fill="#423B30"/>
<path d="M17.2285 33.0078C17.0527 33.1152 16.8281 33.3398 16.7207 33.5156C16.5352 33.8184 16.5254 34.0137 16.5254 37.1094C16.5254 40.2051 16.5352 40.4004 16.7207 40.7031C16.8281 40.8789 17.0527 41.1035 17.2285 41.2109C17.541 41.3965 17.7363 41.4062 25.9004 41.4062C34.0645 41.4062 34.2598 41.3965 34.5723 41.2109C34.748 41.1035 34.9727 40.8789 35.0801 40.7031C35.2656 40.4004 35.2754 40.2051 35.2754 37.1094C35.2754 34.0137 35.2656 33.8184 35.0801 33.5156C34.9727 33.3398 34.748 33.1152 34.5723 33.0078C34.2598 32.8223 34.0645 32.8125 25.9004 32.8125C17.7363 32.8125 17.541 32.8223 17.2285 33.0078Z" fill="#423B30"/>
<path d="M1.60352 26.7578C1.42773 26.8652 1.20312 27.0898 1.0957 27.2656C0.910156 27.5781 0.900391 27.7734 0.900391 33.5059C0.900391 39.082 0.910156 39.4629 1.0957 40.1953C1.50586 41.8262 2.87305 43.9453 3.52734 43.9453C3.67383 43.9453 3.83984 43.8965 3.9082 43.8281C4.07422 43.6621 4.07422 26.8457 3.9082 26.6797C3.83008 26.6016 3.44922 26.5625 2.85352 26.5625C2.10156 26.5625 1.86719 26.6016 1.60352 26.7578Z" fill="#423B30"/>
<path d="M47.8921 26.6797C47.7261 26.8457 47.7261 43.6621 47.8921 43.8281C47.9604 43.8965 48.1265 43.9453 48.2729 43.9453C48.9272 43.9453 50.2944 41.8262 50.7046 40.1953C50.8901 39.4629 50.8999 39.082 50.8999 33.5059C50.8999 27.7734 50.8901 27.5781 50.7046 27.2656C50.3628 26.709 50.0015 26.5625 48.9468 26.5625C48.3511 26.5625 47.9702 26.6016 47.8921 26.6797Z" fill="#423B30"/>
</g>
<defs>
<clipPath id="clip0_437_5325">
<rect width="50" height="50" fill="white" transform="translate(0.900391)"/>
</clipPath>
</defs>
</svg>
