<svg width="33" height="30" viewBox="0 0 33 30" fill="none" xmlns="http://www.w3.org/2000/svg">
<g clip-path="url(#clip0_2715_2005)">
<path d="M15.5491 0.927311C15.8485 0.00600028 17.1519 0.00600052 17.4513 0.927311L20.4292 10.0925C20.5631 10.5045 20.947 10.7835 21.3803 10.7835H31.0171C31.9858 10.7835 32.3886 12.0231 31.6048 12.5925L23.8085 18.2569C23.458 18.5115 23.3114 18.9629 23.4452 19.3749L26.4232 28.5401C26.7225 29.4614 25.668 30.2275 24.8843 29.6581L17.088 23.9937C16.7375 23.7391 16.2629 23.7391 15.9124 23.9937L8.11609 29.6581C7.33238 30.2275 6.2779 29.4614 6.57725 28.5401L9.55519 19.3749C9.68906 18.9629 9.5424 18.5115 9.19192 18.2569L1.39557 12.5925C0.611862 12.0231 1.01464 10.7835 1.98336 10.7835H11.6201C12.0534 10.7835 12.4373 10.5045 12.5712 10.0925L15.5491 0.927311Z" fill="#FF563C"/>
</g>
<defs>
<clipPath id="clip0_2715_2005">
<rect width="33" height="30" fill="white" transform="translate(0 0.000488281)"/>
</clipPath>
</defs>
</svg>
