<svg width="51" height="50" viewBox="0 0 51 50" fill="none" xmlns="http://www.w3.org/2000/svg">
<g clip-path="url(#clip0_437_5302)">
<path d="M40.4629 0.449199C39.8965 0.654277 39.3106 1.26951 39.1153 1.85545C38.9786 2.25584 38.959 2.67576 38.9883 4.1699C39.0176 6.18162 39.086 6.45506 39.7207 7.05076C40.336 7.6367 40.4825 7.666 43.9297 7.69529C46.0196 7.71482 47.2598 7.68553 47.6211 7.61717C48.3047 7.47068 48.8907 7.02146 49.2129 6.39646C49.4571 5.92771 49.4668 5.85936 49.4668 3.95506C49.4668 2.12889 49.4571 1.97264 49.252 1.60154C48.9786 1.08396 48.3633 0.556621 47.8653 0.410136C47.2696 0.224589 40.9903 0.263652 40.4629 0.449199Z" fill="#36E0DD"/>
<path d="M11.2339 8.2617C9.54443 8.50584 8.39209 8.83787 7.21045 9.42381C3.59717 11.2402 1.04834 14.6972 0.35498 18.7402C0.149902 19.9414 0.149902 22.1387 0.35498 23.3496C1.07764 27.6562 3.9585 31.3476 7.86475 32.959C11.605 34.5117 15.9897 33.9844 19.2319 31.5918C20.0132 31.0156 20.3452 30.8594 20.8823 30.8008C21.4976 30.7324 21.9565 30.9082 22.9038 31.5918C26.7124 34.3262 31.8296 34.5801 35.7261 32.2363C38.8999 30.332 40.9995 27.2851 41.771 23.4863C42.0054 22.2851 42.0054 19.7363 41.771 18.5254C40.6968 13.1445 36.6538 9.11131 31.5464 8.33982C30.7847 8.2324 28.9097 8.20311 21.0483 8.21287C15.7847 8.22264 11.3706 8.24217 11.2339 8.2617ZM31.5366 12.7734C34.6909 13.6133 37.064 16.0156 37.8062 19.1113C38.0796 20.2734 38.0308 22.3437 37.6987 23.3887C37.1909 24.9902 36.1851 26.5039 34.9351 27.539C34.144 28.1933 32.6108 29.0039 31.644 29.2676C30.7456 29.5117 28.3335 29.5117 27.4448 29.2578C26.5562 29.0137 25.3745 28.4472 24.4761 27.832C23.3921 27.0898 22.6499 26.8359 21.3901 26.7773C19.7495 26.709 18.939 26.9629 17.2983 28.0566C15.7456 29.1015 14.1147 29.5508 12.1714 29.4629C9.94482 29.375 8.09912 28.5351 6.49756 26.8945C3.11865 23.4375 3.38232 17.8222 7.06396 14.6679C8.3042 13.5937 10.0327 12.8125 11.605 12.6074C11.9663 12.5586 16.4097 12.5293 21.4878 12.539C30.687 12.5586 30.7163 12.5586 31.5366 12.7734Z" fill="#36E0DD"/>
<path d="M11.8691 14.1601C10.2871 14.3359 8.72459 15.1171 7.57225 16.3183C4.6035 19.4238 5.21873 24.4726 8.85155 26.8554C10.7558 28.1054 13.4414 28.2812 15.5215 27.2949C15.9219 27.0995 16.4687 26.787 16.7324 26.6015C18.041 25.6542 19.4863 25.1855 21.0781 25.1855C22.6894 25.1855 23.8711 25.5663 25.3457 26.5624C26.7812 27.5292 28.0117 27.9296 29.5742 27.9296C32.2109 27.9296 34.5449 26.4843 35.7461 24.1015C36.293 23.0078 36.459 22.1288 36.4101 20.6738C36.3711 19.6972 36.3125 19.3554 36.0879 18.7499C35.1504 16.1816 33.0019 14.4726 30.3164 14.1601C29.3105 14.0527 12.9433 14.0429 11.8691 14.1601Z" fill="#36E0DD"/>
<path d="M40.9219 9.29687C40.5312 9.44336 40.4336 9.75586 40.4336 10.8398V11.8652L40.9805 12.6855C41.5176 13.4863 42.4844 15.3027 42.4844 15.5078C42.4844 15.5664 42.6016 15.7031 42.7383 15.8105C42.9824 16.0059 43.1191 16.0156 45.2285 16.0156C47.4355 16.0156 47.4551 16.0156 47.7285 15.7812L48.002 15.5469L48.0312 12.7539C48.0605 9.73633 48.0215 9.43359 47.5332 9.32617C47.1914 9.25781 41.127 9.21875 40.9219 9.29687Z" fill="#36E0DD"/>
<path d="M43.7925 17.6953C43.3726 17.8906 43.3238 18.1445 43.4605 19.4824C43.607 20.957 43.5386 22.5976 43.2652 23.9257C43.021 25.1269 43.021 25.1562 43.3531 25.498L43.6363 25.7812H45.6285C47.8843 25.7812 48.2456 25.7128 48.9195 25.1367C49.7691 24.4042 50.1988 23.2714 50.1988 21.748C50.1988 20.1953 49.8374 19.1601 49.0171 18.3398C48.3531 17.6757 47.9331 17.5781 45.7652 17.5878C44.7593 17.5878 43.9097 17.6367 43.7925 17.6953Z" fill="#36E0DD"/>
<path d="M42.2296 27.4805C42.1124 27.5683 41.878 27.8711 41.7218 28.1641C41.5557 28.4473 41.2042 29.0137 40.9405 29.4238C40.4815 30.1172 40.462 30.1953 40.4034 31.0156C40.2374 33.3398 39.1534 35.5957 37.4249 37.2168C37.0636 37.5586 36.5167 38.0078 36.2042 38.2129C35.5108 38.6719 34.1925 39.2969 33.5968 39.4531C33.3526 39.5117 32.9913 39.6094 32.796 39.6582C32.0636 39.8437 31.878 40.3516 32.1905 41.2207C32.6202 42.4121 32.7276 43.9551 32.4639 45.166C32.1807 46.5137 32.1807 46.7383 32.4542 47.0117C32.8448 47.4023 33.6358 47.3437 35.6475 46.7676C38.4112 45.9766 40.7354 44.6191 42.8546 42.5391C46.4483 39.0332 48.1573 34.6289 48.0303 29.209C47.9913 27.2558 48.2257 27.4023 44.9932 27.3633C42.835 27.3437 42.4053 27.3633 42.2296 27.4805Z" fill="#36E0DD"/>
<path d="M20.0723 32.8906C19.6426 33.1933 18.959 33.623 18.5586 33.8281C17.5918 34.3261 17.3867 34.5214 17.3867 34.9316C17.3867 35.4101 17.5332 35.6152 18.0605 35.8789C18.9102 36.3085 19.6719 36.4648 21.0488 36.4648C22.4355 36.4746 23.0312 36.3671 24.0078 35.9277C24.7012 35.6152 24.8867 35.332 24.7402 34.7656C24.6719 34.4726 24.5547 34.375 23.6562 33.8671C23.0996 33.5644 22.416 33.1347 22.1426 32.9296C21.5176 32.4707 21.2637 32.3242 21.0293 32.3242C20.9316 32.3242 20.502 32.5781 20.0723 32.8906Z" fill="#36E0DD"/>
<path d="M24.8381 37.9785C24.5549 38.0761 24.1545 38.2715 23.9396 38.4179C23.4806 38.7402 22.9142 39.5312 22.758 40.0879C22.6115 40.5859 22.6701 41.6211 22.8947 42.5781C23.0998 43.4277 23.0607 44.5508 22.797 45.4004C22.5822 46.1425 22.6408 47.2656 22.9338 47.8711C23.422 48.8672 24.4572 49.58 25.59 49.6777C26.7619 49.7851 28.2658 49.082 29.3986 47.8906C31.6154 45.5566 31.6154 41.9433 29.3986 39.6093C27.9826 38.125 26.2248 37.5 24.8381 37.9785Z" fill="#36E0DD"/>
</g>
<defs>
<clipPath id="clip0_437_5302">
<rect width="50" height="50" fill="white" transform="translate(0.199219)"/>
</clipPath>
</defs>
</svg>
