<svg width="24" height="25" viewBox="0 0 24 25" fill="none" xmlns="http://www.w3.org/2000/svg">
<path d="M11.3 19.5137C11.1167 19.3303 11.0207 19.097 11.012 18.8137C11.004 18.5303 11.0917 18.297 11.275 18.1137L16.175 13.2137H5C4.71667 13.2137 4.479 13.1177 4.287 12.9257C4.09567 12.7343 4 12.497 4 12.2137C4 11.9303 4.09567 11.6927 4.287 11.5007C4.479 11.3093 4.71667 11.2137 5 11.2137H16.175L11.275 6.31367C11.0917 6.13034 11.004 5.89701 11.012 5.61367C11.0207 5.33034 11.1167 5.097 11.3 4.91367C11.4833 4.73034 11.7167 4.63867 12 4.63867C12.2833 4.63867 12.5167 4.73034 12.7 4.91367L19.3 11.5137C19.4 11.597 19.471 11.701 19.513 11.8257C19.5543 11.951 19.575 12.0803 19.575 12.2137C19.575 12.347 19.5543 12.472 19.513 12.5887C19.471 12.7053 19.4 12.8137 19.3 12.9137L12.7 19.5137C12.5167 19.697 12.2833 19.7887 12 19.7887C11.7167 19.7887 11.4833 19.697 11.3 19.5137Z" fill="black"/>
</svg>
